<svg width="150" height="21" viewBox="0 0 150 21" fill="none" xmlns="http://www.w3.org/2000/svg">
<path d="M11.0025 17.6212L5.70504 20.8064C5.4334 20.9563 5.167 21.0191 4.90586 20.995C4.64494 20.9708 4.41596 20.8838 4.21892 20.734C4.02167 20.5839 3.87374 20.3789 3.77511 20.1191C3.67649 19.8591 3.66448 19.5924 3.73909 19.3192L5.1297 13.3771L0.443314 9.37548C0.219694 9.17732 0.0825844 8.94822 0.0319857 8.68818C-0.018613 8.42835 -0.00917964 8.1751 0.0602864 7.92842C0.129752 7.68196 0.266862 7.47572 0.471616 7.30969C0.676583 7.14387 0.92561 7.05018 1.2187 7.02862L7.35229 6.47878L9.77974 0.819913C9.90238 0.541541 10.0742 0.335296 10.2953 0.201177C10.5165 0.0670584 10.7523 0 11.0025 0C11.2527 0 11.4884 0.0670584 11.7097 0.201177C11.9307 0.335296 12.1026 0.541541 12.2252 0.819913L14.6527 6.51112L20.7862 7.02862C21.0793 7.05018 21.3284 7.14926 21.5333 7.32586C21.7381 7.50267 21.8752 7.71431 21.9447 7.96076C22.0141 8.20744 22.0182 8.4553 21.9569 8.70435C21.8956 8.95361 21.7531 9.17732 21.5295 9.37548L16.8752 13.3771L18.2658 19.3192C18.3405 19.5924 18.3285 19.8591 18.2298 20.1191C18.1312 20.3789 17.9833 20.5839 17.786 20.734C17.589 20.8838 17.36 20.9708 17.0991 20.995C16.8379 21.0191 16.5715 20.9563 16.2999 20.8064L11.0025 17.6212Z" fill="#F4C885"/>
<path d="M43.0025 17.6212L37.705 20.8064C37.4334 20.9563 37.167 21.0191 36.9059 20.995C36.6449 20.9708 36.416 20.8838 36.2189 20.734C36.0217 20.5839 35.8737 20.3789 35.7751 20.1191C35.6765 19.8591 35.6645 19.5924 35.7391 19.3192L37.1297 13.3771L32.4433 9.37548C32.2197 9.17732 32.0826 8.94822 32.032 8.68818C31.9814 8.42835 31.9908 8.1751 32.0603 7.92842C32.1298 7.68196 32.2669 7.47572 32.4716 7.30969C32.6766 7.14387 32.9256 7.05018 33.2187 7.02862L39.3523 6.47878L41.7797 0.819913C41.9024 0.541541 42.0742 0.335296 42.2953 0.201177C42.5165 0.0670584 42.7523 0 43.0025 0C43.2527 0 43.4884 0.0670584 43.7097 0.201177C43.9307 0.335296 44.1026 0.541541 44.2252 0.819913L46.6527 6.51112L52.7862 7.02862C53.0793 7.05018 53.3284 7.14926 53.5333 7.32586C53.7381 7.50267 53.8752 7.71431 53.9447 7.96076C54.0141 8.20744 54.0182 8.4553 53.9569 8.70435C53.8956 8.95361 53.7531 9.17732 53.5295 9.37548L48.8752 13.3771L50.2658 19.3192C50.3405 19.5924 50.3285 19.8591 50.2298 20.1191C50.1312 20.3789 49.9833 20.5839 49.786 20.734C49.589 20.8838 49.36 20.9708 49.0991 20.995C48.8379 21.0191 48.5715 20.9563 48.2999 20.8064L43.0025 17.6212Z" fill="#F4C885"/>
<path d="M75.0025 17.6212L69.705 20.8064C69.4334 20.9563 69.167 21.0191 68.9059 20.995C68.6449 20.9708 68.416 20.8838 68.2189 20.734C68.0217 20.5839 67.8737 20.3789 67.7751 20.1191C67.6765 19.8591 67.6645 19.5924 67.7391 19.3192L69.1297 13.3771L64.4433 9.37548C64.2197 9.17732 64.0826 8.94822 64.032 8.68818C63.9814 8.42835 63.9908 8.1751 64.0603 7.92842C64.1298 7.68196 64.2669 7.47572 64.4716 7.30969C64.6766 7.14387 64.9256 7.05018 65.2187 7.02862L71.3523 6.47878L73.7797 0.819913C73.9024 0.541541 74.0742 0.335296 74.2953 0.201177C74.5165 0.0670584 74.7523 0 75.0025 0C75.2527 0 75.4884 0.0670584 75.7097 0.201177C75.9307 0.335296 76.1026 0.541541 76.2252 0.819913L78.6527 6.51112L84.7862 7.02862C85.0793 7.05018 85.3284 7.14926 85.5333 7.32586C85.7381 7.50267 85.8752 7.71431 85.9447 7.96076C86.0141 8.20744 86.0182 8.4553 85.9569 8.70435C85.8956 8.95361 85.7531 9.17732 85.5295 9.37548L80.8752 13.3771L82.2658 19.3192C82.3405 19.5924 82.3285 19.8591 82.2298 20.1191C82.1312 20.3789 81.9833 20.5839 81.786 20.734C81.589 20.8838 81.36 20.9708 81.0991 20.995C80.8379 21.0191 80.5715 20.9563 80.2999 20.8064L75.0025 17.6212Z" fill="#F4C885"/>
<path d="M107.002 17.6212L101.705 20.8064C101.433 20.9563 101.167 21.0191 100.906 20.995C100.645 20.9708 100.416 20.8838 100.219 20.734C100.022 20.5839 99.8737 20.3789 99.7751 20.1191C99.6765 19.8591 99.6645 19.5924 99.7391 19.3192L101.13 13.3771L96.4433 9.37548C96.2197 9.17732 96.0826 8.94822 96.032 8.68818C95.9814 8.42835 95.9908 8.1751 96.0603 7.92842C96.1298 7.68196 96.2669 7.47572 96.4716 7.30969C96.6766 7.14387 96.9256 7.05018 97.2187 7.02862L103.352 6.47878L105.78 0.819913C105.902 0.541541 106.074 0.335296 106.295 0.201177C106.517 0.0670584 106.752 0 107.002 0C107.253 0 107.488 0.0670584 107.71 0.201177C107.931 0.335296 108.103 0.541541 108.225 0.819913L110.653 6.51112L116.786 7.02862C117.079 7.05018 117.328 7.14926 117.533 7.32586C117.738 7.50267 117.875 7.71431 117.945 7.96076C118.014 8.20744 118.018 8.4553 117.957 8.70435C117.896 8.95361 117.753 9.17732 117.529 9.37548L112.875 13.3771L114.266 19.3192C114.34 19.5924 114.328 19.8591 114.23 20.1191C114.131 20.3789 113.983 20.5839 113.786 20.734C113.589 20.8838 113.36 20.9708 113.099 20.995C112.838 21.0191 112.572 20.9563 112.3 20.8064L107.002 17.6212Z" fill="#F4C885"/>
<path d="M139.002 17.6212L133.705 20.8064C133.433 20.9563 133.167 21.0191 132.906 20.995C132.645 20.9708 132.416 20.8838 132.219 20.734C132.022 20.5839 131.874 20.3789 131.775 20.1191C131.676 19.8591 131.664 19.5924 131.739 19.3192L133.13 13.3771L128.443 9.37548C128.22 9.17732 128.083 8.94822 128.032 8.68818C127.981 8.42835 127.991 8.1751 128.06 7.92842C128.13 7.68196 128.267 7.47572 128.472 7.30969C128.677 7.14387 128.926 7.05018 129.219 7.02862L135.352 6.47878L137.78 0.819913C137.902 0.541541 138.074 0.335296 138.295 0.201177C138.517 0.0670584 138.752 0 139.002 0C139.253 0 139.488 0.0670584 139.71 0.201177C139.931 0.335296 140.103 0.541541 140.225 0.819913L142.653 6.51112L148.786 7.02862C149.079 7.05018 149.328 7.14926 149.533 7.32586C149.738 7.50267 149.875 7.71431 149.945 7.96076C150.014 8.20744 150.018 8.4553 149.957 8.70435C149.896 8.95361 149.753 9.17732 149.529 9.37548L144.875 13.3771L146.266 19.3192C146.34 19.5924 146.328 19.8591 146.23 20.1191C146.131 20.3789 145.983 20.5839 145.786 20.734C145.589 20.8838 145.36 20.9708 145.099 20.995C144.838 21.0191 144.572 20.9563 144.3 20.8064L139.002 17.6212Z" fill="#F4C885"/>
</svg>
